<?xml version="1.0" encoding="utf-8"?>
<!-- Generator: Adobe Illustrator 16.0.0, SVG Export Plug-In . SVG Version: 6.00 Build 0)  -->
<!DOCTYPE svg PUBLIC "-//W3C//DTD SVG 1.1//EN" "http://www.w3.org/Graphics/SVG/1.1/DTD/svg11.dtd">
<svg version="1.1" id="Layer_1" xmlns="http://www.w3.org/2000/svg" xmlns:xlink="http://www.w3.org/1999/xlink" x="0px" y="0px"
	 width="1155px" height="1155px" viewBox="0 0 1155 1155" enable-background="new 0 0 1155 1155" xml:space="preserve">
<rect x="791.25" y="791.25" opacity="0.5" fill="#FFFFFF" width="132.5" height="132.5"/>
<rect x="27.75" y="791.5" opacity="0.5" fill="#FFFFFF" width="336" height="336"/>
<rect x="794.5" y="24.5" opacity="0.5" fill="#FFFFFF" width="336" height="336"/>
<rect x="27.75" y="27" opacity="0.5" fill="#FFFFFF" width="336" height="336"/>
<rect x="27.75" y="27.75" fill="none" stroke="#000000" stroke-width="3" stroke-miterlimit="10" width="1099.75" height="1099.75"/>
<g transform="translate(70,70)">
	<g transform="translate(700,700) scale(0.35,0.35)">
		<g transform="">
			<rect width="100" height="100"/>
		</g>
	</g>
	<g transform="translate(735,700) scale(0.35,0.35)">
		<g transform="">
			<rect width="100" height="100"/>
		</g>
	</g>
	<g transform="translate(770,700) scale(0.35,0.35)">
		<g transform="">
			<rect width="100" height="100"/>
		</g>
	</g>
	<g transform="translate(805,700) scale(0.35,0.35)">
		<g transform="">
			<rect x="0" width="100" height="100"/>
		</g>
	</g>
	<g transform="translate(840,700) scale(0.35,0.35)">
		<g transform="">
			<rect x="0" width="100" height="100"/>
		</g>
	</g>
	<g transform="translate(700,735) scale(0.35,0.35)">
		<g transform="">
			<rect x="0" width="100" height="100"/>
		</g>
	</g>
	<g transform="translate(840,735) scale(0.35,0.35)">
		<g transform="">
			<rect x="0" width="100" height="100"/>
		</g>
	</g>
	<g transform="translate(700,770) scale(0.35,0.35)">
		<g transform="">
			<rect x="0" width="100" height="100"/>
		</g>
	</g>
	<g transform="translate(770,770) scale(0.35,0.35)">
		<g transform="">
			<rect x="0" width="100" height="100"/>
		</g>
	</g>
	<g transform="translate(840,770) scale(0.35,0.35)">
		<g transform="">
			<rect x="0" width="100" height="100"/>
		</g>
	</g>
	<g transform="translate(700,805) scale(0.35,0.35)">
		<g transform="">
			<rect x="0" width="100" height="100"/>
		</g>
	</g>
	<g transform="translate(840,805) scale(0.35,0.35)">
		<g transform="">
			<rect x="0" width="100" height="100"/>
		</g>
	</g>
	<g transform="translate(700,840) scale(0.35,0.35)">
		<g transform="">
			<rect x="0" width="100" height="100"/>
		</g>
	</g>
	<g transform="translate(735,840) scale(0.35,0.35)">
		<g transform="">
			<rect x="0" width="100" height="100"/>
		</g>
	</g>
	<g transform="translate(770,840) scale(0.35,0.35)">
		<g transform="">
			<rect x="0" width="100" height="100"/>
		</g>
	</g>
	<g transform="translate(805,840) scale(0.35,0.35)">
		<g transform="">
			<rect x="0" width="100" height="100"/>
		</g>
	</g>
	<g transform="translate(840,840) scale(0.35,0.35)">
		<g transform="">
			<rect x="0" width="100" height="100"/>
		</g>
	</g>
	<g transform="translate(0,0) scale(2.45, 2.45)">
		<g transform="">
			<g>
				<rect x="15" y="15" fill="none" width="70" height="70"/>
				<path d="M85,0H15H0v15v70v15h15h70h15V85V15V0H85z M85,85H15V15h70V85z"/>
			</g>
		</g>
	</g>
	<g transform="translate(770,0) scale(2.45, 2.45)">
		<g transform="">
			<g>
				<rect x="15" y="15" fill="none" width="70" height="70"/>
				<path d="M85,0H15H0v15v70v15h15h70h15V85V15V0H85z M85,85H15V15h70V85z"/>
			</g>
		</g>
	</g>
	<g transform="translate(0,770) scale(2.45, 2.45)">
		<g transform="">
			<g>
				<rect x="15" y="15" fill="none" width="70" height="70"/>
				<path d="M85,0H15H0v15v70v15h15h70h15V85V15V0H85z M85,85H15V15h70V85z"/>
			</g>
		</g>
	</g>
	<g transform="translate(70,70) scale(1.05, 1.05)">
		<g transform="">
			<rect x="0" y="0" width="100" height="100"/>
		</g>
	</g>
	<g transform="translate(840,70) scale(1.05, 1.05)">
		<g transform="">
			<rect x="0" y="0" width="100" height="100"/>
		</g>
	</g>
	<g transform="translate(70,840) scale(1.05, 1.05)">
		<g transform="">
			<rect x="0" y="0" width="100" height="100"/>
		</g>
	</g>
</g>
</svg>
